<svg xmlns="http://www.w3.org/2000/svg" viewBox="0 0 1200 760" width="1200" height="760" role="img" aria-label="Coldframe memory field — embers whose warmth is belief strength; blue embers are fading, hexagons shelter pinned memories"><defs><radialGradient id="vignette" cx="50%" cy="44%" r="60%"><stop offset="0%" stop-color="rgb(46,36,28)" stop-opacity="0.34"/><stop offset="55%" stop-color="rgb(26,23,22)" stop-opacity="0.14"/><stop offset="100%" stop-color="#141413" stop-opacity="0"/></radialGradient><radialGradient id="b0" cx="50%" cy="50%" r="50%"><stop offset="0%" stop-color="rgb(56,75,102)" stop-opacity="0.135"/><stop offset="32%" stop-color="rgb(56,75,102)" stop-opacity="0.051"/><stop offset="100%" stop-color="rgb(56,75,102)" stop-opacity="0"/></radialGradient><radialGradient id="b1" cx="50%" cy="50%" r="50%"><stop offset="0%" stop-color="rgb(56,75,102)" stop-opacity="0.135"/><stop offset="32%" stop-color="rgb(56,75,102)" stop-opacity="0.051"/><stop offset="100%" stop-color="rgb(56,75,102)" stop-opacity="0"/></radialGradient><radialGradient id="b2" cx="50%" cy="50%" r="50%"><stop offset="0%" stop-color="rgb(57,77,104)" stop-opacity="0.137"/><stop offset="32%" stop-color="rgb(57,77,104)" stop-opacity="0.052"/><stop offset="100%" stop-color="rgb(57,77,104)" stop-opacity="0"/></radialGradient><radialGradient id="b3" cx="50%" cy="50%" r="50%"><stop offset="0%" stop-color="rgb(58,79,107)" stop-opacity="0.140"/><stop offset="32%" stop-color="rgb(58,79,107)" stop-opacity="0.053"/><stop offset="100%" stop-color="rgb(58,79,107)" stop-opacity="0"/></radialGradient><radialGradient id="b4" cx="50%" cy="50%" r="50%"><stop offset="0%" stop-color="rgb(58,79,107)" stop-opacity="0.140"/><stop offset="32%" stop-color="rgb(58,79,107)" stop-opacity="0.053"/><stop offset="100%" stop-color="rgb(58,79,107)" stop-opacity="0"/></radialGradient><radialGradient id="b5" cx="50%" cy="50%" r="50%"><stop offset="0%" stop-color="rgb(61,85,113)" stop-opacity="0.147"/><stop offset="32%" stop-color="rgb(61,85,113)" stop-opacity="0.056"/><stop offset="100%" stop-color="rgb(61,85,113)" stop-opacity="0"/></radialGradient><radialGradient id="b6" cx="50%" cy="50%" r="50%"><stop offset="0%" stop-color="rgb(64,89,119)" stop-opacity="0.153"/><stop offset="32%" stop-color="rgb(64,89,119)" stop-opacity="0.058"/><stop offset="100%" stop-color="rgb(64,89,119)" stop-opacity="0"/></radialGradient><radialGradient id="b7" cx="50%" cy="50%" r="50%"><stop offset="0%" stop-color="rgb(65,90,120)" stop-opacity="0.155"/><stop offset="32%" stop-color="rgb(65,90,120)" stop-opacity="0.059"/><stop offset="100%" stop-color="rgb(65,90,120)" stop-opacity="0"/></radialGradient><radialGradient id="b8" cx="50%" cy="50%" r="50%"><stop offset="0%" stop-color="rgb(70,98,131)" stop-opacity="0.166"/><stop offset="32%" stop-color="rgb(70,98,131)" stop-opacity="0.063"/><stop offset="100%" stop-color="rgb(70,98,131)" stop-opacity="0"/></radialGradient><radialGradient id="b9" cx="50%" cy="50%" r="50%"><stop offset="0%" stop-color="rgb(81,115,152)" stop-opacity="0.191"/><stop offset="32%" stop-color="rgb(81,115,152)" stop-opacity="0.073"/><stop offset="100%" stop-color="rgb(81,115,152)" stop-opacity="0"/></radialGradient><radialGradient id="b10" cx="50%" cy="50%" r="50%"><stop offset="0%" stop-color="rgb(83,119,158)" stop-opacity="0.198"/><stop offset="32%" stop-color="rgb(83,119,158)" stop-opacity="0.075"/><stop offset="100%" stop-color="rgb(83,119,158)" stop-opacity="0"/></radialGradient><radialGradient id="b11" cx="50%" cy="50%" r="50%"><stop offset="0%" stop-color="rgb(86,123,163)" stop-opacity="0.204"/><stop offset="32%" stop-color="rgb(86,123,163)" stop-opacity="0.077"/><stop offset="100%" stop-color="rgb(86,123,163)" stop-opacity="0"/></radialGradient><radialGradient id="b12" cx="50%" cy="50%" r="50%"><stop offset="0%" stop-color="rgb(91,131,174)" stop-opacity="0.217"/><stop offset="32%" stop-color="rgb(91,131,174)" stop-opacity="0.083"/><stop offset="100%" stop-color="rgb(91,131,174)" stop-opacity="0"/></radialGradient><radialGradient id="b13" cx="50%" cy="50%" r="50%"><stop offset="0%" stop-color="rgb(92,134,176)" stop-opacity="0.221"/><stop offset="32%" stop-color="rgb(92,134,176)" stop-opacity="0.084"/><stop offset="100%" stop-color="rgb(92,134,176)" stop-opacity="0"/></radialGradient><radialGradient id="b14" cx="50%" cy="50%" r="50%"><stop offset="0%" stop-color="rgb(96,139,184)" stop-opacity="0.230"/><stop offset="32%" stop-color="rgb(96,139,184)" stop-opacity="0.087"/><stop offset="100%" stop-color="rgb(96,139,184)" stop-opacity="0"/></radialGradient><radialGradient id="b15" cx="50%" cy="50%" r="50%"><stop offset="0%" stop-color="rgb(96,140,184)" stop-opacity="0.231"/><stop offset="32%" stop-color="rgb(96,140,184)" stop-opacity="0.088"/><stop offset="100%" stop-color="rgb(96,140,184)" stop-opacity="0"/></radialGradient><radialGradient id="b16" cx="50%" cy="50%" r="50%"><stop offset="0%" stop-color="rgb(97,141,186)" stop-opacity="0.232"/><stop offset="32%" stop-color="rgb(97,141,186)" stop-opacity="0.088"/><stop offset="100%" stop-color="rgb(97,141,186)" stop-opacity="0"/></radialGradient><radialGradient id="b17" cx="50%" cy="50%" r="50%"><stop offset="0%" stop-color="rgb(98,142,188)" stop-opacity="0.235"/><stop offset="32%" stop-color="rgb(98,142,188)" stop-opacity="0.089"/><stop offset="100%" stop-color="rgb(98,142,188)" stop-opacity="0"/></radialGradient><radialGradient id="b18" cx="50%" cy="50%" r="50%"><stop offset="0%" stop-color="rgb(101,147,194)" stop-opacity="0.243"/><stop offset="32%" stop-color="rgb(101,147,194)" stop-opacity="0.092"/><stop offset="100%" stop-color="rgb(101,147,194)" stop-opacity="0"/></radialGradient><radialGradient id="b19" cx="50%" cy="50%" r="50%"><stop offset="0%" stop-color="rgb(103,150,198)" stop-opacity="0.248"/><stop offset="32%" stop-color="rgb(103,150,198)" stop-opacity="0.094"/><stop offset="100%" stop-color="rgb(103,150,198)" stop-opacity="0"/></radialGradient><radialGradient id="b20" cx="50%" cy="50%" r="50%"><stop offset="0%" stop-color="rgb(103,151,198)" stop-opacity="0.249"/><stop offset="32%" stop-color="rgb(103,151,198)" stop-opacity="0.094"/><stop offset="100%" stop-color="rgb(103,151,198)" stop-opacity="0"/></radialGradient><radialGradient id="b21" cx="50%" cy="50%" r="50%"><stop offset="0%" stop-color="rgb(117,151,192)" stop-opacity="0.265"/><stop offset="32%" stop-color="rgb(117,151,192)" stop-opacity="0.101"/><stop offset="100%" stop-color="rgb(117,151,192)" stop-opacity="0"/></radialGradient><radialGradient id="b22" cx="50%" cy="50%" r="50%"><stop offset="0%" stop-color="rgb(118,151,192)" stop-opacity="0.265"/><stop offset="32%" stop-color="rgb(118,151,192)" stop-opacity="0.101"/><stop offset="100%" stop-color="rgb(118,151,192)" stop-opacity="0"/></radialGradient><radialGradient id="b23" cx="50%" cy="50%" r="50%"><stop offset="0%" stop-color="rgb(132,147,177)" stop-opacity="0.276"/><stop offset="32%" stop-color="rgb(132,147,177)" stop-opacity="0.105"/><stop offset="100%" stop-color="rgb(132,147,177)" stop-opacity="0"/></radialGradient><radialGradient id="b24" cx="50%" cy="50%" r="50%"><stop offset="0%" stop-color="rgb(145,142,163)" stop-opacity="0.286"/><stop offset="32%" stop-color="rgb(145,142,163)" stop-opacity="0.109"/><stop offset="100%" stop-color="rgb(145,142,163)" stop-opacity="0"/></radialGradient><radialGradient id="b25" cx="50%" cy="50%" r="50%"><stop offset="0%" stop-color="rgb(148,141,160)" stop-opacity="0.288"/><stop offset="32%" stop-color="rgb(148,141,160)" stop-opacity="0.110"/><stop offset="100%" stop-color="rgb(148,141,160)" stop-opacity="0"/></radialGradient><radialGradient id="b26" cx="50%" cy="50%" r="50%"><stop offset="0%" stop-color="rgb(160,137,147)" stop-opacity="0.298"/><stop offset="32%" stop-color="rgb(160,137,147)" stop-opacity="0.113"/><stop offset="100%" stop-color="rgb(160,137,147)" stop-opacity="0"/></radialGradient><radialGradient id="b27" cx="50%" cy="50%" r="50%"><stop offset="0%" stop-color="rgb(163,137,144)" stop-opacity="0.300"/><stop offset="32%" stop-color="rgb(163,137,144)" stop-opacity="0.114"/><stop offset="100%" stop-color="rgb(163,137,144)" stop-opacity="0"/></radialGradient><radialGradient id="b28" cx="50%" cy="50%" r="50%"><stop offset="0%" stop-color="rgb(182,130,124)" stop-opacity="0.315"/><stop offset="32%" stop-color="rgb(182,130,124)" stop-opacity="0.120"/><stop offset="100%" stop-color="rgb(182,130,124)" stop-opacity="0"/></radialGradient><radialGradient id="b29" cx="50%" cy="50%" r="50%"><stop offset="0%" stop-color="rgb(185,129,120)" stop-opacity="0.318"/><stop offset="32%" stop-color="rgb(185,129,120)" stop-opacity="0.121"/><stop offset="100%" stop-color="rgb(185,129,120)" stop-opacity="0"/></radialGradient><radialGradient id="b30" cx="50%" cy="50%" r="50%"><stop offset="0%" stop-color="rgb(188,128,118)" stop-opacity="0.320"/><stop offset="32%" stop-color="rgb(188,128,118)" stop-opacity="0.122"/><stop offset="100%" stop-color="rgb(188,128,118)" stop-opacity="0"/></radialGradient><radialGradient id="b31" cx="50%" cy="50%" r="50%"><stop offset="0%" stop-color="rgb(190,128,115)" stop-opacity="0.321"/><stop offset="32%" stop-color="rgb(190,128,115)" stop-opacity="0.122"/><stop offset="100%" stop-color="rgb(190,128,115)" stop-opacity="0"/></radialGradient><radialGradient id="b32" cx="50%" cy="50%" r="50%"><stop offset="0%" stop-color="rgb(196,126,109)" stop-opacity="0.326"/><stop offset="32%" stop-color="rgb(196,126,109)" stop-opacity="0.124"/><stop offset="100%" stop-color="rgb(196,126,109)" stop-opacity="0"/></radialGradient><radialGradient id="b33" cx="50%" cy="50%" r="50%"><stop offset="0%" stop-color="rgb(206,123,99)" stop-opacity="0.334"/><stop offset="32%" stop-color="rgb(206,123,99)" stop-opacity="0.127"/><stop offset="100%" stop-color="rgb(206,123,99)" stop-opacity="0"/></radialGradient><radialGradient id="b34" cx="50%" cy="50%" r="50%"><stop offset="0%" stop-color="rgb(213,120,91)" stop-opacity="0.340"/><stop offset="32%" stop-color="rgb(213,120,91)" stop-opacity="0.129"/><stop offset="100%" stop-color="rgb(213,120,91)" stop-opacity="0"/></radialGradient><radialGradient id="b35" cx="50%" cy="50%" r="50%"><stop offset="0%" stop-color="rgb(214,120,90)" stop-opacity="0.340"/><stop offset="32%" stop-color="rgb(214,120,90)" stop-opacity="0.129"/><stop offset="100%" stop-color="rgb(214,120,90)" stop-opacity="0"/></radialGradient><radialGradient id="b36" cx="50%" cy="50%" r="50%"><stop offset="0%" stop-color="rgb(216,119,88)" stop-opacity="0.341"/><stop offset="32%" stop-color="rgb(216,119,88)" stop-opacity="0.130"/><stop offset="100%" stop-color="rgb(216,119,88)" stop-opacity="0"/></radialGradient><radialGradient id="b37" cx="50%" cy="50%" r="50%"><stop offset="0%" stop-color="rgb(217,120,88)" stop-opacity="0.343"/><stop offset="32%" stop-color="rgb(217,120,88)" stop-opacity="0.130"/><stop offset="100%" stop-color="rgb(217,120,88)" stop-opacity="0"/></radialGradient><radialGradient id="b38" cx="50%" cy="50%" r="50%"><stop offset="0%" stop-color="rgb(219,126,93)" stop-opacity="0.347"/><stop offset="32%" stop-color="rgb(219,126,93)" stop-opacity="0.132"/><stop offset="100%" stop-color="rgb(219,126,93)" stop-opacity="0"/></radialGradient><radialGradient id="b39" cx="50%" cy="50%" r="50%"><stop offset="0%" stop-color="rgb(220,131,96)" stop-opacity="0.349"/><stop offset="32%" stop-color="rgb(220,131,96)" stop-opacity="0.133"/><stop offset="100%" stop-color="rgb(220,131,96)" stop-opacity="0"/></radialGradient><radialGradient id="b40" cx="50%" cy="50%" r="50%"><stop offset="0%" stop-color="rgb(225,148,110)" stop-opacity="0.360"/><stop offset="32%" stop-color="rgb(225,148,110)" stop-opacity="0.137"/><stop offset="100%" stop-color="rgb(225,148,110)" stop-opacity="0"/></radialGradient><radialGradient id="b41" cx="50%" cy="50%" r="50%"><stop offset="0%" stop-color="rgb(226,152,113)" stop-opacity="0.362"/><stop offset="32%" stop-color="rgb(226,152,113)" stop-opacity="0.137"/><stop offset="100%" stop-color="rgb(226,152,113)" stop-opacity="0"/></radialGradient><radialGradient id="b42" cx="50%" cy="50%" r="50%"><stop offset="0%" stop-color="rgb(228,160,119)" stop-opacity="0.366"/><stop offset="32%" stop-color="rgb(228,160,119)" stop-opacity="0.139"/><stop offset="100%" stop-color="rgb(228,160,119)" stop-opacity="0"/></radialGradient><radialGradient id="b43" cx="50%" cy="50%" r="50%"><stop offset="0%" stop-color="rgb(229,165,123)" stop-opacity="0.369"/><stop offset="32%" stop-color="rgb(229,165,123)" stop-opacity="0.140"/><stop offset="100%" stop-color="rgb(229,165,123)" stop-opacity="0"/></radialGradient><radialGradient id="b44" cx="50%" cy="50%" r="50%"><stop offset="0%" stop-color="rgb(230,166,124)" stop-opacity="0.370"/><stop offset="32%" stop-color="rgb(230,166,124)" stop-opacity="0.141"/><stop offset="100%" stop-color="rgb(230,166,124)" stop-opacity="0"/></radialGradient><radialGradient id="b45" cx="50%" cy="50%" r="50%"><stop offset="0%" stop-color="rgb(235,186,140)" stop-opacity="0.382"/><stop offset="32%" stop-color="rgb(235,186,140)" stop-opacity="0.145"/><stop offset="100%" stop-color="rgb(235,186,140)" stop-opacity="0"/></radialGradient><radialGradient id="b46" cx="50%" cy="50%" r="50%"><stop offset="0%" stop-color="rgb(238,198,149)" stop-opacity="0.389"/><stop offset="32%" stop-color="rgb(238,198,149)" stop-opacity="0.148"/><stop offset="100%" stop-color="rgb(238,198,149)" stop-opacity="0"/></radialGradient><radialGradient id="b47" cx="50%" cy="50%" r="50%"><stop offset="0%" stop-color="rgb(241,208,157)" stop-opacity="0.395"/><stop offset="32%" stop-color="rgb(241,208,157)" stop-opacity="0.150"/><stop offset="100%" stop-color="rgb(241,208,157)" stop-opacity="0"/></radialGradient></defs><rect width="1200" height="760" rx="16" fill="#141413"/><rect width="1200" height="760" rx="16" fill="url(#vignette)"/><circle cx="341.2" cy="463.1" r="27.8" fill="url(#b0)"/><circle cx="341.2" cy="463.1" r="12.4" fill="none" stroke="rgb(150,180,210)" stroke-opacity="0.30" stroke-width="0.9" stroke-dasharray="1.5 3.5"/><circle cx="341.2" cy="463.1" r="2.9" fill="rgb(65,83,108)" fill-opacity="0.311"/><circle cx="341.2" cy="463.1" r="1.3" fill="rgb(255,250,240)" fill-opacity="0.023"/><circle cx="285.0" cy="135.6" r="27.8" fill="url(#b1)"/><circle cx="285.0" cy="135.6" r="12.4" fill="none" stroke="rgb(150,180,210)" stroke-opacity="0.30" stroke-width="0.9" stroke-dasharray="1.5 3.5"/><circle cx="285.0" cy="135.6" r="2.9" fill="rgb(65,83,108)" fill-opacity="0.311"/><circle cx="285.0" cy="135.6" r="1.3" fill="rgb(255,250,240)" fill-opacity="0.023"/><circle cx="184.6" cy="338.9" r="28.8" fill="url(#b2)"/><circle cx="184.6" cy="338.9" r="12.6" fill="none" stroke="rgb(150,180,210)" stroke-opacity="0.30" stroke-width="0.9" stroke-dasharray="1.5 3.5"/><circle cx="184.6" cy="338.9" r="3.0" fill="rgb(67,85,110)" fill-opacity="0.316"/><circle cx="184.6" cy="338.9" r="1.3" fill="rgb(255,250,240)" fill-opacity="0.026"/><circle cx="961.7" cy="167.8" r="30.3" fill="url(#b3)"/><circle cx="961.7" cy="167.8" r="12.9" fill="none" stroke="rgb(150,180,210)" stroke-opacity="0.30" stroke-width="0.9" stroke-dasharray="1.5 3.5"/><circle cx="961.7" cy="167.8" r="3.1" fill="rgb(69,88,114)" fill-opacity="0.323"/><circle cx="961.7" cy="167.8" r="1.4" fill="rgb(255,250,240)" fill-opacity="0.029"/><circle cx="357.2" cy="375.3" r="30.3" fill="url(#b4)"/><circle cx="357.2" cy="375.3" r="12.9" fill="none" stroke="rgb(150,180,210)" stroke-opacity="0.30" stroke-width="0.9" stroke-dasharray="1.5 3.5"/><circle cx="357.2" cy="375.3" r="3.1" fill="rgb(69,88,114)" fill-opacity="0.323"/><circle cx="357.2" cy="375.3" r="1.4" fill="rgb(255,250,240)" fill-opacity="0.029"/><circle cx="890.3" cy="496.5" r="33.2" fill="url(#b5)"/><circle cx="890.3" cy="496.5" r="13.4" fill="none" stroke="rgb(150,180,210)" stroke-opacity="0.30" stroke-width="0.9" stroke-dasharray="1.5 3.5"/><circle cx="890.3" cy="496.5" r="3.4" fill="rgb(74,96,121)" fill-opacity="0.339"/><circle cx="890.3" cy="496.5" r="1.5" fill="rgb(255,250,240)" fill-opacity="0.038"/><circle cx="571.6" cy="356.4" r="34.5" fill="url(#b6)"/><circle cx="571.6" cy="356.4" r="13.7" fill="none" stroke="rgb(150,180,210)" stroke-opacity="0.30" stroke-width="0.9" stroke-dasharray="1.5 3.5"/><circle cx="571.6" cy="356.4" r="3.5" fill="rgb(79,102,128)" fill-opacity="0.353"/><circle cx="571.6" cy="356.4" r="1.6" fill="rgb(255,250,240)" fill-opacity="0.047"/><circle cx="400.3" cy="135.1" r="36.2" fill="url(#b7)"/><circle cx="400.3" cy="135.1" r="14.0" fill="none" stroke="rgb(150,180,210)" stroke-opacity="0.30" stroke-width="0.9" stroke-dasharray="1.5 3.5"/><circle cx="400.3" cy="135.1" r="3.6" fill="rgb(81,103,129)" fill-opacity="0.356"/><circle cx="400.3" cy="135.1" r="1.6" fill="rgb(255,250,240)" fill-opacity="0.049"/><circle cx="629.7" cy="481.3" r="40.1" fill="url(#b8)"/><circle cx="629.7" cy="481.3" r="14.8" fill="none" stroke="rgb(150,180,210)" stroke-opacity="0.30" stroke-width="0.9" stroke-dasharray="1.5 3.5"/><circle cx="629.7" cy="481.3" r="4.0" fill="rgb(89,114,141)" fill-opacity="0.383"/><circle cx="629.7" cy="481.3" r="1.8" fill="rgb(255,250,240)" fill-opacity="0.067"/><circle cx="727.4" cy="659.6" r="45.5" fill="url(#b9)"/><circle cx="727.4" cy="659.6" r="4.5" fill="rgb(107,135,164)" fill-opacity="0.440"/><circle cx="727.4" cy="659.6" r="2.0" fill="rgb(255,250,240)" fill-opacity="0.112"/><circle cx="920.0" cy="318.9" r="51.2" fill="url(#b10)"/><circle cx="920.0" cy="318.9" r="16.9" fill="none" stroke="rgb(150,180,210)" stroke-opacity="0.30" stroke-width="0.9" stroke-dasharray="1.5 3.5"/><circle cx="920.0" cy="318.9" r="5.0" fill="rgb(111,140,170)" fill-opacity="0.456"/><circle cx="920.0" cy="318.9" r="2.2" fill="rgb(255,250,240)" fill-opacity="0.127"/><circle cx="806.5" cy="127.8" r="48.2" fill="url(#b11)"/><circle cx="806.5" cy="127.8" r="4.7" fill="rgb(116,145,175)" fill-opacity="0.469"/><circle cx="806.5" cy="127.8" r="2.1" fill="rgb(255,250,240)" fill-opacity="0.138"/><circle cx="725.8" cy="560.0" r="53.9" fill="url(#b12)"/><circle cx="725.8" cy="560.0" r="5.2" fill="rgb(124,155,186)" fill-opacity="0.500"/><circle cx="725.8" cy="560.0" r="2.3" fill="rgb(255,250,240)" fill-opacity="0.169"/><circle cx="321.0" cy="217.6" r="53.2" fill="url(#b13)"/><circle cx="321.0" cy="217.6" r="5.2" fill="rgb(126,158,188)" fill-opacity="0.508"/><circle cx="321.0" cy="217.6" r="2.3" fill="rgb(255,250,240)" fill-opacity="0.177"/><circle cx="855.6" cy="585.3" r="59.4" fill="url(#b14)"/><circle cx="855.6" cy="585.3" r="5.7" fill="rgb(132,164,195)" fill-opacity="0.529"/><circle cx="855.6" cy="585.3" r="2.6" fill="rgb(255,250,240)" fill-opacity="0.200"/><circle cx="962.1" cy="233.9" r="59.6" fill="url(#b15)"/><circle cx="962.1" cy="233.9" r="5.7" fill="rgb(132,165,195)" fill-opacity="0.531"/><circle cx="962.1" cy="233.9" r="2.6" fill="rgb(255,250,240)" fill-opacity="0.202"/><circle cx="1018.7" cy="479.9" r="52.9" fill="url(#b16)"/><circle cx="1018.7" cy="479.9" r="5.1" fill="rgb(133,166,197)" fill-opacity="0.534"/><circle cx="1018.7" cy="479.9" r="2.3" fill="rgb(255,250,240)" fill-opacity="0.206"/><circle cx="443.5" cy="562.9" r="56.3" fill="url(#b17)"/><circle cx="443.5" cy="562.9" r="5.4" fill="rgb(135,167,198)" fill-opacity="0.540"/><circle cx="443.5" cy="562.9" r="2.4" fill="rgb(255,250,240)" fill-opacity="0.213"/><circle cx="469.0" cy="481.0" r="59.3" fill="url(#b18)"/><circle cx="469.0" cy="481.0" r="5.7" fill="rgb(139,172,203)" fill-opacity="0.558"/><circle cx="469.0" cy="481.0" r="2.6" fill="rgb(255,250,240)" fill-opacity="0.234"/><circle cx="759.3" cy="487.1" r="59.0" fill="url(#b19)"/><circle cx="759.3" cy="487.1" r="5.7" fill="rgb(142,175,207)" fill-opacity="0.570"/><circle cx="759.3" cy="487.1" r="2.5" fill="rgb(255,250,240)" fill-opacity="0.248"/><circle cx="102.5" cy="388.5" r="57.8" fill="url(#b20)"/><circle cx="102.5" cy="388.5" r="5.6" fill="rgb(143,176,207)" fill-opacity="0.572"/><circle cx="102.5" cy="388.5" r="2.5" fill="rgb(255,250,240)" fill-opacity="0.251"/><circle cx="195.7" cy="228.6" r="65.5" fill="url(#b21)"/><circle cx="195.7" cy="228.6" r="6.2" fill="rgb(157,179,204)" fill-opacity="0.609"/><circle cx="195.7" cy="228.6" r="2.8" fill="rgb(255,250,240)" fill-opacity="0.298"/><circle cx="461.8" cy="314.4" r="68.3" fill="url(#b22)"/><circle cx="461.8" cy="314.4" r="6.5" fill="rgb(158,179,204)" fill-opacity="0.610"/><circle cx="461.8" cy="314.4" r="2.9" fill="rgb(255,250,240)" fill-opacity="0.299"/><circle cx="1057.4" cy="323.8" r="69.3" fill="url(#b23)"/><circle cx="1057.4" cy="323.8" r="6.6" fill="rgb(171,179,194)" fill-opacity="0.635"/><circle cx="1057.4" cy="323.8" r="3.0" fill="rgb(255,250,240)" fill-opacity="0.334"/><circle cx="829.6" cy="200.9" r="68.8" fill="url(#b24)"/><circle cx="829.6" cy="200.9" r="6.5" fill="rgb(182,177,186)" fill-opacity="0.659"/><circle cx="829.6" cy="200.9" r="2.9" fill="rgb(255,250,240)" fill-opacity="0.369"/><circle cx="621.8" cy="620.1" r="74.8" fill="url(#b25)"/><circle cx="621.8" cy="620.1" r="7.1" fill="rgb(184,177,184)" fill-opacity="0.664"/><circle cx="621.8" cy="620.1" r="3.2" fill="rgb(255,250,240)" fill-opacity="0.376"/><circle cx="480.5" cy="639.7" r="74.1" fill="url(#b26)"/><circle cx="480.5" cy="639.7" r="7.0" fill="rgb(194,176,177)" fill-opacity="0.686"/><circle cx="480.5" cy="639.7" r="3.2" fill="rgb(255,250,240)" fill-opacity="0.410"/><circle cx="792.4" cy="359.5" r="73.1" fill="url(#b27)"/><circle cx="792.4" cy="359.5" r="6.9" fill="rgb(196,177,176)" fill-opacity="0.690"/><circle cx="792.4" cy="359.5" r="3.1" fill="rgb(255,250,240)" fill-opacity="0.417"/><circle cx="584.4" cy="240.2" r="77.7" fill="url(#b28)"/><circle cx="584.4" cy="240.2" r="7.3" fill="rgb(210,176,166)" fill-opacity="0.724"/><circle cx="584.4" cy="240.2" r="3.3" fill="rgb(255,250,240)" fill-opacity="0.471"/><circle cx="544.7" cy="78.2" r="88.1" fill="url(#b29)"/><polygon points="508.6,90.4 516.0,53.1 552.0,40.8 580.7,65.9 573.3,103.2 537.3,115.5" fill="none" stroke="rgb(230,224,214)" stroke-opacity="0.28" stroke-width="1.1"/><circle cx="544.7" cy="78.2" r="8.3" fill="rgb(213,176,164)" fill-opacity="0.731"/><circle cx="544.7" cy="78.2" r="3.7" fill="rgb(255,250,240)" fill-opacity="0.482"/><circle cx="436.5" cy="234.5" r="81.5" fill="url(#b30)"/><circle cx="436.5" cy="234.5" r="7.7" fill="rgb(215,176,163)" fill-opacity="0.735"/><circle cx="436.5" cy="234.5" r="3.5" fill="rgb(255,250,240)" fill-opacity="0.490"/><circle cx="795.3" cy="286.2" r="80.5" fill="url(#b31)"/><circle cx="795.3" cy="286.2" r="7.6" fill="rgb(216,176,162)" fill-opacity="0.739"/><circle cx="795.3" cy="286.2" r="3.4" fill="rgb(255,250,240)" fill-opacity="0.496"/><circle cx="509.3" cy="167.9" r="81.5" fill="url(#b32)"/><circle cx="509.3" cy="167.9" r="7.7" fill="rgb(220,176,159)" fill-opacity="0.750"/><circle cx="509.3" cy="167.9" r="3.4" fill="rgb(255,250,240)" fill-opacity="0.515"/><circle cx="480.7" cy="408.0" r="95.5" fill="url(#b33)"/><polygon points="462.3,443.9 440.4,410.1 458.8,374.2 499.0,372.2 520.9,406.0 502.6,441.9" fill="none" stroke="rgb(230,224,214)" stroke-opacity="0.28" stroke-width="1.1"/><circle cx="480.7" cy="408.0" r="8.9" fill="rgb(227,176,155)" fill-opacity="0.768"/><circle cx="480.7" cy="408.0" r="4.0" fill="rgb(255,250,240)" fill-opacity="0.547"/><circle cx="864.3" cy="418.9" r="85.8" fill="url(#b34)"/><circle cx="864.3" cy="418.9" r="8.0" fill="rgb(231,176,152)" fill-opacity="0.781"/><circle cx="864.3" cy="418.9" r="3.6" fill="rgb(255,250,240)" fill-opacity="0.571"/><circle cx="292.0" cy="544.8" r="85.9" fill="url(#b35)"/><circle cx="292.0" cy="544.8" r="8.1" fill="rgb(232,176,152)" fill-opacity="0.783"/><circle cx="292.0" cy="544.8" r="3.6" fill="rgb(255,250,240)" fill-opacity="0.573"/><circle cx="649.6" cy="135.5" r="89.0" fill="url(#b36)"/><circle cx="649.6" cy="135.5" r="8.3" fill="rgb(233,175,151)" fill-opacity="0.785"/><circle cx="649.6" cy="135.5" r="3.7" fill="rgb(255,250,240)" fill-opacity="0.578"/><circle cx="313.7" cy="626.2" r="89.3" fill="url(#b37)"/><polygon points="310.9,664.5 279.2,643.0 281.9,604.6 316.5,587.9 348.3,609.5 345.5,647.8" fill="none" stroke="rgb(230,224,214)" stroke-opacity="0.28" stroke-width="1.1"/><circle cx="313.7" cy="626.2" r="8.4" fill="rgb(234,176,152)" fill-opacity="0.789"/><circle cx="313.7" cy="626.2" r="3.8" fill="rgb(255,250,240)" fill-opacity="0.585"/><circle cx="235.9" cy="412.4" r="88.7" fill="url(#b38)"/><circle cx="235.9" cy="412.4" r="8.3" fill="rgb(235,181,155)" fill-opacity="0.797"/><circle cx="235.9" cy="412.4" r="3.7" fill="rgb(255,250,240)" fill-opacity="0.600"/><circle cx="974.3" cy="574.0" r="89.3" fill="url(#b39)"/><circle cx="974.3" cy="574.0" r="8.4" fill="rgb(236,184,158)" fill-opacity="0.803"/><circle cx="974.3" cy="574.0" r="3.8" fill="rgb(255,250,240)" fill-opacity="0.611"/><circle cx="551.0" cy="544.8" r="92.9" fill="url(#b40)"/><circle cx="551.0" cy="544.8" r="8.7" fill="rgb(239,195,168)" fill-opacity="0.827"/><circle cx="551.0" cy="544.8" r="3.9" fill="rgb(255,250,240)" fill-opacity="0.657"/><circle cx="1000.1" cy="389.4" r="101.2" fill="url(#b41)"/><polygon points="985.2,428.7 958.6,396.2 973.5,356.9 1015.0,350.1 1041.6,382.7 1026.7,422.0" fill="none" stroke="rgb(230,224,214)" stroke-opacity="0.28" stroke-width="1.1"/><circle cx="1000.1" cy="389.4" r="9.4" fill="rgb(240,198,170)" fill-opacity="0.832"/><circle cx="1000.1" cy="389.4" r="4.2" fill="rgb(255,250,240)" fill-opacity="0.667"/><circle cx="684.8" cy="194.6" r="94.3" fill="url(#b42)"/><polygon points="724.5,198.1 701.6,230.8 661.9,227.3 645.0,191.1 667.9,158.4 707.7,161.9" fill="none" stroke="rgb(230,224,214)" stroke-opacity="0.28" stroke-width="1.1"/><circle cx="684.8" cy="194.6" r="8.8" fill="rgb(241,203,174)" fill-opacity="0.842"/><circle cx="684.8" cy="194.6" r="4.0" fill="rgb(255,250,240)" fill-opacity="0.687"/><circle cx="296.0" cy="295.3" r="97.8" fill="url(#b43)"/><circle cx="296.0" cy="295.3" r="9.1" fill="rgb(242,206,177)" fill-opacity="0.849"/><circle cx="296.0" cy="295.3" r="4.1" fill="rgb(255,250,240)" fill-opacity="0.701"/><circle cx="667.0" cy="305.1" r="96.6" fill="url(#b44)"/><circle cx="667.0" cy="305.1" r="9.0" fill="rgb(242,206,177)" fill-opacity="0.851"/><circle cx="667.0" cy="305.1" r="4.1" fill="rgb(255,250,240)" fill-opacity="0.705"/><circle cx="193.6" cy="478.3" r="101.9" fill="url(#b45)"/><polygon points="226.6,504.7 187.3,520.1 154.3,493.7 160.6,451.9 200.0,436.5 233.0,462.9" fill="none" stroke="rgb(230,224,214)" stroke-opacity="0.28" stroke-width="1.1"/><circle cx="193.6" cy="478.3" r="9.5" fill="rgb(245,218,187)" fill-opacity="0.879"/><circle cx="193.6" cy="478.3" r="4.3" fill="rgb(255,250,240)" fill-opacity="0.761"/><circle cx="564.4" cy="702.4" r="104.8" fill="url(#b46)"/><polygon points="541.0,738.5 521.4,700.1 544.9,664.0 587.9,666.2 607.5,704.6 584.0,740.8" fill="none" stroke="rgb(230,224,214)" stroke-opacity="0.28" stroke-width="1.1"/><circle cx="564.4" cy="702.4" r="9.7" fill="rgb(247,224,193)" fill-opacity="0.894"/><circle cx="564.4" cy="702.4" r="4.4" fill="rgb(255,250,240)" fill-opacity="0.793"/><circle cx="669.9" cy="404.6" r="107.5" fill="url(#b47)"/><polygon points="711.8,417.8 679.4,447.5 637.5,434.3 628.0,391.4 660.4,361.7 702.3,374.9" fill="none" stroke="rgb(230,224,214)" stroke-opacity="0.28" stroke-width="1.1"/><circle cx="669.9" cy="404.6" r="10.0" fill="rgb(249,230,198)" fill-opacity="0.908"/><circle cx="669.9" cy="404.6" r="4.5" fill="rgb(255,250,240)" fill-opacity="0.825"/></svg>